<?xml version="1.0" encoding="UTF-8"?>
<svg width="558px" height="449px" viewBox="0 0 558 449" version="1.1" xmlns="http://www.w3.org/2000/svg" xmlns:xlink="http://www.w3.org/1999/xlink">
    <!-- Generator: Sketch 41.2 (35397) - http://www.bohemiancoding.com/sketch -->
    <title>Logo</title>
    <desc>Created with Sketch.</desc>
    <defs>
        <linearGradient x1="-3.39085314%" y1="73.7774587%" x2="103.433088%" y2="16.5825556%" id="linearGradient-1">
            <stop stop-color="#C1F9F7" offset="19%"></stop>
            <stop stop-color="#C1F5F5" offset="30%"></stop>
            <stop stop-color="#C3E9F0" offset="40%"></stop>
            <stop stop-color="#C5D5E8" offset="51%"></stop>
            <stop stop-color="#C8B9DC" offset="62%"></stop>
            <stop stop-color="#CC95CC" offset="73%"></stop>
            <stop stop-color="#D269B9" offset="84%"></stop>
            <stop stop-color="#D736A3" offset="94%"></stop>
            <stop stop-color="#DB1796" offset="100%"></stop>
        </linearGradient>
        <linearGradient x1="218.735892%" y1="540.579262%" x2="-175.620767%" y2="-636.190351%" id="linearGradient-2">
            <stop stop-color="#DB1796" offset="0%"></stop>
            <stop stop-color="#D736A3" offset="6%"></stop>
            <stop stop-color="#D269B9" offset="16%"></stop>
            <stop stop-color="#CC95CC" offset="27%"></stop>
            <stop stop-color="#C8B9DC" offset="38%"></stop>
            <stop stop-color="#C5D5E8" offset="49%"></stop>
            <stop stop-color="#C3E9F0" offset="60%"></stop>
            <stop stop-color="#C1F5F5" offset="70%"></stop>
            <stop stop-color="#C1F9F7" offset="81%"></stop>
        </linearGradient>
        <linearGradient x1="10601%" y1="-55883.0101%" x2="10964%" y2="-72274.2635%" id="linearGradient-3">
            <stop stop-color="#DB1796" offset="0%"></stop>
            <stop stop-color="#D736A3" offset="6%"></stop>
            <stop stop-color="#D269B9" offset="16%"></stop>
            <stop stop-color="#CC95CC" offset="27%"></stop>
            <stop stop-color="#C8B9DC" offset="38%"></stop>
            <stop stop-color="#C5D5E8" offset="49%"></stop>
            <stop stop-color="#C3E9F0" offset="60%"></stop>
            <stop stop-color="#C1F5F5" offset="70%"></stop>
            <stop stop-color="#C1F9F7" offset="81%"></stop>
        </linearGradient>
        <linearGradient x1="55058%" y1="-53831.378%" x2="49817%" y2="-70106.2653%" id="linearGradient-4">
            <stop stop-color="#DB1796" offset="0%"></stop>
            <stop stop-color="#D736A3" offset="6%"></stop>
            <stop stop-color="#D269B9" offset="16%"></stop>
            <stop stop-color="#CC95CC" offset="27%"></stop>
            <stop stop-color="#C8B9DC" offset="38%"></stop>
            <stop stop-color="#C5D5E8" offset="49%"></stop>
            <stop stop-color="#C3E9F0" offset="60%"></stop>
            <stop stop-color="#C1F5F5" offset="70%"></stop>
            <stop stop-color="#C1F9F7" offset="81%"></stop>
        </linearGradient>
        <linearGradient x1="53067%" y1="-52613.9333%" x2="47826%" y2="-68698.1414%" id="linearGradient-5">
            <stop stop-color="#DB1796" offset="0%"></stop>
            <stop stop-color="#D736A3" offset="6%"></stop>
            <stop stop-color="#D269B9" offset="16%"></stop>
            <stop stop-color="#CC95CC" offset="27%"></stop>
            <stop stop-color="#C8B9DC" offset="38%"></stop>
            <stop stop-color="#C5D5E8" offset="49%"></stop>
            <stop stop-color="#C3E9F0" offset="60%"></stop>
            <stop stop-color="#C1F5F5" offset="70%"></stop>
            <stop stop-color="#C1F9F7" offset="81%"></stop>
        </linearGradient>
        <linearGradient x1="9278%" y1="-55379.3452%" x2="9640%" y2="-71616.1278%" id="linearGradient-6">
            <stop stop-color="#DB1796" offset="0%"></stop>
            <stop stop-color="#D736A3" offset="6%"></stop>
            <stop stop-color="#D269B9" offset="16%"></stop>
            <stop stop-color="#CC95CC" offset="27%"></stop>
            <stop stop-color="#C8B9DC" offset="38%"></stop>
            <stop stop-color="#C5D5E8" offset="49%"></stop>
            <stop stop-color="#C3E9F0" offset="60%"></stop>
            <stop stop-color="#C1F5F5" offset="70%"></stop>
            <stop stop-color="#C1F9F7" offset="81%"></stop>
        </linearGradient>
        <linearGradient x1="51573%" y1="-52181.6067%" x2="46332%" y2="-68270.1853%" id="linearGradient-7">
            <stop stop-color="#DB1796" offset="0%"></stop>
            <stop stop-color="#D736A3" offset="6%"></stop>
            <stop stop-color="#D269B9" offset="16%"></stop>
            <stop stop-color="#CC95CC" offset="27%"></stop>
            <stop stop-color="#C8B9DC" offset="38%"></stop>
            <stop stop-color="#C5D5E8" offset="49%"></stop>
            <stop stop-color="#C3E9F0" offset="60%"></stop>
            <stop stop-color="#C1F5F5" offset="70%"></stop>
            <stop stop-color="#C1F9F7" offset="81%"></stop>
        </linearGradient>
        <linearGradient x1="55401%" y1="-53660.3597%" x2="50160%" y2="-69851.6065%" id="linearGradient-8">
            <stop stop-color="#DB1796" offset="0%"></stop>
            <stop stop-color="#D736A3" offset="6%"></stop>
            <stop stop-color="#D269B9" offset="16%"></stop>
            <stop stop-color="#CC95CC" offset="27%"></stop>
            <stop stop-color="#C8B9DC" offset="38%"></stop>
            <stop stop-color="#C5D5E8" offset="49%"></stop>
            <stop stop-color="#C3E9F0" offset="60%"></stop>
            <stop stop-color="#C1F5F5" offset="70%"></stop>
            <stop stop-color="#C1F9F7" offset="81%"></stop>
        </linearGradient>
        <linearGradient x1="5382%" y1="-56281.8281%" x2="5744%" y2="-72758.4765%" id="linearGradient-9">
            <stop stop-color="#DB1796" offset="0%"></stop>
            <stop stop-color="#D736A3" offset="6%"></stop>
            <stop stop-color="#D269B9" offset="16%"></stop>
            <stop stop-color="#CC95CC" offset="27%"></stop>
            <stop stop-color="#C8B9DC" offset="38%"></stop>
            <stop stop-color="#C5D5E8" offset="49%"></stop>
            <stop stop-color="#C3E9F0" offset="60%"></stop>
            <stop stop-color="#C1F5F5" offset="70%"></stop>
            <stop stop-color="#C1F9F7" offset="81%"></stop>
        </linearGradient>
        <linearGradient x1="3289%" y1="-26182.7144%" x2="9086%" y2="-40118.8737%" id="linearGradient-10">
            <stop stop-color="#DB1796" offset="0%"></stop>
            <stop stop-color="#D736A3" offset="6%"></stop>
            <stop stop-color="#D269B9" offset="16%"></stop>
            <stop stop-color="#CC95CC" offset="27%"></stop>
            <stop stop-color="#C8B9DC" offset="38%"></stop>
            <stop stop-color="#C5D5E8" offset="49%"></stop>
            <stop stop-color="#C3E9F0" offset="60%"></stop>
            <stop stop-color="#C1F5F5" offset="70%"></stop>
            <stop stop-color="#C1F9F7" offset="81%"></stop>
        </linearGradient>
        <linearGradient x1="398%" y1="-27751.4762%" x2="6194%" y2="-41929.7439%" id="linearGradient-11">
            <stop stop-color="#DB1796" offset="0%"></stop>
            <stop stop-color="#D736A3" offset="6%"></stop>
            <stop stop-color="#D269B9" offset="16%"></stop>
            <stop stop-color="#CC95CC" offset="27%"></stop>
            <stop stop-color="#C8B9DC" offset="38%"></stop>
            <stop stop-color="#C5D5E8" offset="49%"></stop>
            <stop stop-color="#C3E9F0" offset="60%"></stop>
            <stop stop-color="#C1F5F5" offset="70%"></stop>
            <stop stop-color="#C1F9F7" offset="81%"></stop>
        </linearGradient>
        <linearGradient x1="2816%" y1="-26536.5091%" x2="8613%" y2="-40566.1974%" id="linearGradient-12">
            <stop stop-color="#DB1796" offset="0%"></stop>
            <stop stop-color="#D736A3" offset="6%"></stop>
            <stop stop-color="#D269B9" offset="16%"></stop>
            <stop stop-color="#CC95CC" offset="27%"></stop>
            <stop stop-color="#C8B9DC" offset="38%"></stop>
            <stop stop-color="#C5D5E8" offset="49%"></stop>
            <stop stop-color="#C3E9F0" offset="60%"></stop>
            <stop stop-color="#C1F5F5" offset="70%"></stop>
            <stop stop-color="#C1F9F7" offset="81%"></stop>
        </linearGradient>
        <linearGradient x1="1148%" y1="-27218.2995%" x2="6945%" y2="-41271.784%" id="linearGradient-13">
            <stop stop-color="#DB1796" offset="0%"></stop>
            <stop stop-color="#D736A3" offset="6%"></stop>
            <stop stop-color="#D269B9" offset="16%"></stop>
            <stop stop-color="#CC95CC" offset="27%"></stop>
            <stop stop-color="#C8B9DC" offset="38%"></stop>
            <stop stop-color="#C5D5E8" offset="49%"></stop>
            <stop stop-color="#C3E9F0" offset="60%"></stop>
            <stop stop-color="#C1F5F5" offset="70%"></stop>
            <stop stop-color="#C1F9F7" offset="81%"></stop>
        </linearGradient>
        <linearGradient x1="51644%" y1="-44758.6175%" x2="46403%" y2="-58554.1263%" id="linearGradient-14">
            <stop stop-color="#DB1796" offset="0%"></stop>
            <stop stop-color="#D736A3" offset="6%"></stop>
            <stop stop-color="#D269B9" offset="16%"></stop>
            <stop stop-color="#CC95CC" offset="27%"></stop>
            <stop stop-color="#C8B9DC" offset="38%"></stop>
            <stop stop-color="#C5D5E8" offset="49%"></stop>
            <stop stop-color="#C3E9F0" offset="60%"></stop>
            <stop stop-color="#C1F5F5" offset="70%"></stop>
            <stop stop-color="#C1F9F7" offset="81%"></stop>
        </linearGradient>
        <linearGradient x1="7391%" y1="-47524.7532%" x2="7753%" y2="-61451.1259%" id="linearGradient-15">
            <stop stop-color="#DB1796" offset="0%"></stop>
            <stop stop-color="#D736A3" offset="6%"></stop>
            <stop stop-color="#D269B9" offset="16%"></stop>
            <stop stop-color="#CC95CC" offset="27%"></stop>
            <stop stop-color="#C8B9DC" offset="38%"></stop>
            <stop stop-color="#C5D5E8" offset="49%"></stop>
            <stop stop-color="#C3E9F0" offset="60%"></stop>
            <stop stop-color="#C1F5F5" offset="70%"></stop>
            <stop stop-color="#C1F9F7" offset="81%"></stop>
        </linearGradient>
        <linearGradient x1="7065%" y1="-47530.4785%" x2="7427%" y2="-61456.8512%" id="linearGradient-16">
            <stop stop-color="#DB1796" offset="0%"></stop>
            <stop stop-color="#D736A3" offset="6%"></stop>
            <stop stop-color="#D269B9" offset="16%"></stop>
            <stop stop-color="#CC95CC" offset="27%"></stop>
            <stop stop-color="#C8B9DC" offset="38%"></stop>
            <stop stop-color="#C5D5E8" offset="49%"></stop>
            <stop stop-color="#C3E9F0" offset="60%"></stop>
            <stop stop-color="#C1F5F5" offset="70%"></stop>
            <stop stop-color="#C1F9F7" offset="81%"></stop>
        </linearGradient>
    </defs>
    <g id="Page-1-Copy" stroke="none" stroke-width="1" fill="none" fill-rule="evenodd">
        <g id="Desktop-HD" transform="translate(-426.000000, -234.000000)">
            <g id="Logo" transform="translate(431.500000, 234.000000)">
                <g id="Layer_2">
                    <g id="Layer_1-2">
                        <polygon id="Shape" fill="#000000" points="125.760547 89.6854144 147.504925 85.8381558 147.504925 184.737793 125.760547 188.585051"></polygon>
                        <polygon id="Shape" fill="#000000" points="169.395377 82.0013517 198.954792 76.7740982 240.920189 138.089782 241.201906 138.089782 241.201906 69.2886711 262.935849 65.451867 262.935849 164.351504 234.492868 169.380122 191.411038 106.590352 191.129321 106.590352 191.129321 177.032821 169.384943 180.880079"></polygon>
                        <polygon id="Shape" fill="#000000" points="304.20217 78.1018206 276.030472 83.0781659 276.030472 63.8000549 354.107811 50.0105601 354.107811 69.2886711 325.936113 74.2650165 325.936113 153.886542 304.191736 157.733801"></polygon>
                        <path d="M361.912415,97.4112951 C361.853903,89.8233248 363.201855,82.2904122 365.887755,75.1954676 C368.448885,68.4524467 372.206508,62.2293585 376.979057,56.8268987 C381.787672,51.421597 387.496338,46.8937802 393.850774,43.4451297 C400.503605,39.807337 407.709075,37.2924662 415.177792,36.0015207 C422.217875,34.64156 429.448034,34.5954851 436.504811,35.8656121 C442.637536,36.9796665 448.419443,39.5341606 453.376528,43.3196756 C458.219376,47.134294 462.029366,52.1056606 464.457396,57.7782588 C467.228353,64.3556793 468.582973,71.4449224 468.432736,78.5827279 C468.494078,86.1777385 467.146075,93.7180225 464.457396,100.819464 C461.899831,107.561911 458.145731,113.785019 453.376528,119.188033 C448.568495,124.593954 442.859715,129.121862 436.504811,132.569802 C429.849226,136.1927 422.643934,138.693381 415.177792,139.971593 C408.137757,141.332033 400.90751,141.378109 393.850774,140.107502 C387.720125,139.005063 381.937923,136.461188 376.979057,132.684802 C372.13589,128.8705 368.325831,123.899044 365.898189,118.226219 C363.121912,111.646437 361.763689,104.553383 361.912415,97.4112951 Z M384.501943,93.4176734 C384.425308,97.6509421 385.158455,101.859752 386.661774,105.816719 C387.984269,109.258784 390.113541,112.331689 392.869981,114.776231 C395.651307,117.18597 398.979289,118.876568 402.563132,119.700304 C406.712309,120.625781 411.008339,120.675626 415.177792,119.846667 C419.627984,119.098943 423.903591,117.539827 427.792453,115.246684 C435.229548,110.841394 440.861764,103.930844 443.683377,95.7490285 C445.142271,91.5158894 445.87261,87.065125 445.843208,82.5868041 C445.905711,78.3784556 445.172876,74.1962632 443.683377,70.2609403 C442.371186,66.7924967 440.241232,63.693499 437.47517,61.2282462 C434.696718,58.8180198 431.372863,57.1241094 427.792453,56.2937188 C423.643135,55.3694608 419.347359,55.3196185 415.177792,56.1473557 C410.727781,56.8957681 406.452297,58.4548395 402.563132,60.7473389 C395.095801,65.1586437 389.454113,72.105945 386.661774,80.3286306 C385.214705,84.5395037 384.484583,88.9642014 384.501943,93.4176734 L384.501943,93.4176734 Z" id="Shape" fill="#000000"></path>
                        <polygon id="Shape" fill="#000000" points="226.521321 216.864493 198.349623 221.840838 198.349623 202.531364 276.416528 188.741869 276.416528 208.01998 248.24483 212.996325 248.24483 292.617851 226.500453 296.465109"></polygon>
                        <polygon id="Shape" fill="#000000" points="292.912623 185.825061 314.657 181.977803 314.657 218.850849 356.893679 211.386331 356.893679 174.523739 378.638057 170.676481 378.638057 269.576117 356.893679 273.423376 356.893679 230.674897 314.657 238.139415 314.657 280.887894 292.912623 284.735152"></polygon>
                        <polygon id="Shape" fill="#000000" points="398.26434 167.216039 465.354717 155.371082 465.354717 175.485554 420.050453 183.493706 420.050453 201.935457 462.829698 194.376848 462.829698 214.49132 420.050453 222.049928 420.050453 242.1644 467.869302 233.717158 467.869302 253.83163 398.26434 266.115675"></polygon>
                        <polygon id="Shape" fill="#000000" points="105.205642 348.72719 128.90117 344.545387 144.656453 405.181528 144.93817 405.181528 165.566113 338.115866 185.776698 334.540424 206.269 396.012926 206.550717 396.012926 223.140717 327.985448 245.198113 324.002281 216.316906 428.045535 196.941038 431.464159 175.19666 366.855305 174.914943 366.855305 153.170566 439.158676 134.493774 442.4623"></polygon>
                        <polygon id="Shape" fill="#000000" points="262.601962 320.918201 284.34634 317.070943 284.34634 415.97058 262.601962 419.817838"></polygon>
                        <polygon id="Shape" fill="#000000" points="307.081943 313.045958 328.826321 309.198699 328.826321 388.004773 369.111849 380.885254 369.111849 400.999725 307.071509 411.956049"></polygon>
                        <path d="M383.197698,299.622371 L415.824698,293.861937 C423.247085,292.492792 430.809759,292.046846 438.341189,292.534215 C444.864589,292.877153 451.226963,294.688855 456.955377,297.83465 C462.315944,300.946311 466.678,305.527327 469.528302,311.038692 C472.637623,316.823519 474.195761,324.23228 474.202717,333.264974 C474.29567,340.825145 472.750697,348.315541 469.674377,355.219439 C466.717812,361.761436 462.58295,367.701277 457.477075,372.741193 C452.271994,377.846372 446.283351,382.081974 439.73934,385.286601 C433.088956,388.59715 425.997695,390.931523 418.683604,392.21794 L383.135094,398.490644 L383.197698,299.622371 Z M404.942075,374.560277 L416.231623,372.563466 C421.034177,371.739031 425.732822,370.392916 430.244434,368.548936 C434.379217,366.881701 438.181808,364.484468 441.471377,361.471234 C444.676551,358.475792 447.218163,354.839294 448.93166,350.797183 C450.827336,346.156212 451.750719,341.174357 451.644491,336.160873 C451.789915,331.942517 450.856041,327.757001 448.93166,324.002281 C447.234332,320.854315 444.708196,318.232808 441.627887,316.422763 C438.301855,314.539148 434.613137,313.38794 430.807868,313.045958 C426.459317,312.621269 422.072861,312.80777 417.775849,313.600046 L404.952509,315.868674 L404.942075,374.560277 Z" id="Shape" fill="#000000"></path>
                        <polyline id="Shape" stroke="url(#linearGradient-1)" stroke-width="15" points="1.00166038 305.403713 29.7054906 267.70476 58.3988868 295.273296 88.6052075 257.292071 116.547358 284.996515 145.992 247.1512 173.934151 274.855643"></polyline>
                        <path d="M506.318453,72.790931 C506.209516,76.8552626 503.292247,80.2958918 499.30683,81.0604461 C495.227151,81.781807 492.451717,79.1786348 492.451717,75.5091028 C492.47965,71.4134068 495.395195,67.9096163 499.41117,67.1454972 C503.699528,66.4345907 506.318453,69.2259441 506.318453,72.790931 Z M495.268887,75.0072865 C495.185831,76.0734835 495.610176,77.1163614 496.413557,77.8204467 C497.216938,78.524532 498.304987,78.8071203 499.348566,78.5827279 C501.816841,78.0784358 503.572942,75.8789873 503.522151,73.3554744 C503.522151,71.410936 502.374415,69.1736715 499.348566,69.6754879 C496.882077,70.2302289 495.167388,72.4769286 495.279321,75.0072865 L495.268887,75.0072865 Z" id="Shape" fill="url(#linearGradient-2)"></path>
                        <path d="M113.511075,123.955289 C113.402138,128.01962 110.48487,131.460249 106.499453,132.224804 C102.419774,132.946165 99.6443396,130.342992 99.6443396,126.67346 C99.6722729,122.577764 102.587817,119.073974 106.603792,118.309855 C110.902585,117.546676 113.511075,120.379847 113.511075,123.955289 Z M102.461509,126.171644 C102.378453,127.237841 102.802799,128.280719 103.60618,128.984804 C104.409561,129.68889 105.49761,129.971478 106.541189,129.747085 C109.009464,129.242793 110.765565,127.043345 110.714774,124.519832 C110.714774,122.575294 109.567038,120.338029 106.541189,120.839845 C104.078724,121.393909 102.36519,123.634694 102.471943,126.161189 L102.461509,126.171644 Z" id="Shape" fill="url(#linearGradient-3)"></path>
                        <path d="M552.426132,50.6378305 C552.322009,54.4096576 549.61392,57.6014065 545.91534,58.3114387 C542.127811,58.9805272 539.550623,56.565536 539.550623,53.1573667 C539.583673,49.362066 542.287761,46.1186496 546.009245,45.410577 C549.995019,44.689216 552.426132,47.2819338 552.426132,50.6378305 Z M542.169547,52.7287319 C542.087064,53.7204662 542.479213,54.6925706 543.226302,55.3483338 C543.973391,56.004097 544.98675,56.265689 545.957075,56.0532652 C548.231312,55.5593762 549.839612,53.5231475 549.796774,51.1919194 C549.796774,49.3937442 548.753377,47.2923883 545.957075,47.7837501 C543.701318,48.2953729 542.11744,50.3283025 542.169547,52.6450959 L542.169547,52.7287319 Z" id="Shape" fill="url(#linearGradient-4)"></path>
                        <path d="M520.654717,38.8765101 C520.610857,40.5463914 519.412428,41.9603636 517.774943,42.2742249 C517.083541,42.4584101 516.345925,42.3011216 515.789292,41.8508068 C515.232658,41.4004921 514.923772,40.7111624 514.957774,39.9951424 C514.977942,38.3193307 516.173504,36.8897018 517.816679,36.5765185 C518.514195,36.3878156 519.259718,36.5456191 519.821465,37.0008678 C520.383212,37.4561164 520.693074,38.1536148 520.654717,38.8765101 Z M516.115943,39.7860522 C516.089699,40.2206184 516.268111,40.6424151 516.598012,40.9257443 C516.927914,41.2090736 517.371216,41.321224 517.795811,41.2287742 C518.779912,41.0143435 519.485492,40.1468968 519.496547,39.1378728 C519.546166,38.6882353 519.374374,38.2425188 519.036013,37.9430096 C518.697651,37.6435004 518.235022,37.5276434 517.795811,37.6324238 C516.798842,37.8609229 516.100627,38.7616437 516.126377,39.7860522 L516.115943,39.7860522 Z" id="Shape" fill="url(#linearGradient-5)"></path>
                        <path d="M96.2428679,97.5472037 C96.199008,99.217085 95.000579,100.631057 93.3630943,100.944918 C92.6716923,101.129104 91.9340758,100.971815 91.3774425,100.5215 C90.8208092,100.071186 90.5119226,99.381856 90.5459245,98.6658359 C90.5660933,96.9900243 91.7616546,95.5603954 93.4048302,95.2472121 C94.1023459,95.0585092 94.8478689,95.2163127 95.4096157,95.6715614 C95.9713625,96.12681 96.2812254,96.8243083 96.2428679,97.5472037 L96.2428679,97.5472037 Z M91.7040943,98.4567458 C91.6673906,98.896608 91.8413046,99.3278038 92.1727093,99.6186117 C92.504114,99.9094196 92.9536385,100.025292 93.3839623,99.9308313 C94.3910953,99.7114918 95.1032353,98.8097144 95.0846981,97.7772028 C95.1343171,97.3275653 94.9625252,96.8818489 94.6241636,96.5823397 C94.2858021,96.2828304 93.8231732,96.1669735 93.3839623,96.2717538 C92.3709341,96.498158 91.6640844,97.4175523 91.7040943,98.4567458 L91.7040943,98.4567458 Z" id="Shape" fill="url(#linearGradient-6)"></path>
                        <path d="M497.000925,15.3956873 C496.924046,18.2375525 494.883753,20.6428798 492.096962,21.1770297 C490.917782,21.4926634 489.659062,21.2245271 488.710025,20.4555339 C487.760989,19.6865407 487.235979,18.5093424 487.29734,17.287953 C487.332716,14.4349273 489.37147,12.0028525 492.17,11.4752471 C493.358589,11.150326 494.630607,11.4182671 495.588005,12.195224 C496.545403,12.972181 497.071224,14.1632408 497.000925,15.3956873 L497.000925,15.3956873 Z M489.279792,16.9429543 C489.223689,17.6890071 489.521992,18.4178847 490.084702,18.9096818 C490.647411,19.401479 491.408631,19.5986032 492.138698,19.4415815 C493.85331,19.0673013 495.064139,17.5299804 495.028906,15.7720495 C495.118133,15.0057014 494.828301,14.2439757 494.252544,13.7316474 C493.676788,13.2193191 492.887644,13.0209337 492.138698,13.2002408 C490.402219,13.5843594 489.19208,15.1628422 489.269358,16.9429543 L489.279792,16.9429543 Z" id="Shape" fill="url(#linearGradient-7)"></path>
                        <path d="M540.395774,5.16072485 C540.285926,8.20330792 538.105981,10.7724901 535.126623,11.370702 C533.823231,11.6742025 532.453117,11.3522466 531.420295,10.4997717 C530.387473,9.64729673 529.809746,8.36153476 529.857472,7.0216271 C529.967319,3.97904403 532.147264,1.40986184 535.126623,0.811649911 C536.430014,0.508149433 537.800129,0.830105324 538.83295,1.68258027 C539.865772,2.53505522 540.443499,3.82081719 540.395774,5.16072485 Z" id="Shape" fill="url(#linearGradient-8)"></path>
                        <path d="M57.5328679,125.993917 C57.4135825,129.028568 55.2357412,131.586629 52.263717,132.182986 C50.95801,132.500692 49.5791461,132.188405 48.5367543,131.338896 C47.4943626,130.489387 46.9083584,129.200384 46.9528302,127.85482 C47.0626776,124.812237 49.2426226,122.243054 52.2219811,121.644842 C53.5313621,121.325993 54.9141957,121.640768 55.9575563,122.495174 C57.0009169,123.34958 57.5840651,124.644743 57.5328679,125.993917 Z" id="Shape" fill="url(#linearGradient-9)"></path>
                        <path d="M61.7690566,438.500042 C61.692768,441.361455 59.6394845,443.784142 56.8337925,444.323203 C55.6475284,444.642493 54.3804051,444.373853 53.4248836,443.600486 C52.4693621,442.82712 51.9407856,441.642382 52.0028679,440.413217 C52.0376515,437.540652 54.0893893,435.091215 56.9068302,434.558693 C58.10203,434.23505 59.3796349,434.505399 60.3421649,435.285631 C61.3046949,436.065864 61.8353576,437.261307 61.7690566,438.500042 L61.7690566,438.500042 Z M53.9853208,440.057764 C53.9249256,440.81056 54.2241523,441.547496 54.7919092,442.044231 C55.3596661,442.540966 56.1287727,442.738723 56.8650943,442.5773 C58.588941,442.199032 59.8070829,440.654764 59.7761698,438.886859 C59.8650231,438.115068 59.5729092,437.348317 58.9933816,436.832167 C58.413854,436.316017 57.6196388,436.115241 56.8650943,436.294141 C55.1156061,436.688032 53.9011749,438.28401 53.9853208,440.078673 L53.9853208,440.057764 Z" id="Shape" fill="url(#linearGradient-10)"></path>
                        <path d="M39.273434,419.744657 C39.1396764,424.616706 35.6412953,428.739529 30.8636604,429.655529 C25.9701321,430.523253 22.6416981,427.397356 22.6416981,422.996008 C22.7053758,418.108605 26.195853,413.942387 30.9888679,413.032863 C36.1328113,412.123321 39.273434,415.500127 39.273434,419.744657 Z M26.0223019,422.400101 C25.9170579,423.681169 26.424037,424.936401 27.3888607,425.783573 C28.3536844,426.630744 29.6621534,426.96958 30.9158302,426.696904 C33.8569688,426.069941 35.937788,423.436363 35.8719623,420.4242 C35.8719623,418.092844 34.4946792,415.385127 30.9158302,416.012398 C27.660434,416.545577 26.0223019,419.68193 26.0223019,422.400101 Z" id="Shape" fill="url(#linearGradient-11)"></path>
                        <path d="M70.9509434,401.522451 C70.8318218,404.836502 68.4574662,407.635108 65.2122642,408.286517 C63.793012,408.615737 62.3016747,408.264692 61.1771935,407.336705 C60.0527124,406.408717 59.4230691,405.009406 59.4735849,403.550625 C59.5927065,400.236574 61.9670621,397.437968 65.2122642,396.786559 C66.6315164,396.457339 68.1228536,396.808384 69.2473348,397.736371 C70.3718159,398.664359 71.0014592,400.06367 70.9509434,401.522451 Z" id="Shape" fill="url(#linearGradient-12)"></path>
                        <path d="M34.828566,444.114113 C34.7435992,446.487287 33.0419921,448.490828 30.7175849,448.954549 C29.701478,449.193014 28.6325012,448.94328 27.8264372,448.27912 C27.0203732,447.614961 26.5693504,446.612284 26.6066038,445.567289 C26.6915706,443.194115 28.3931777,441.190573 30.7175849,440.726852 C31.7336918,440.488387 32.8026686,440.738121 33.6087326,441.402281 C34.4147966,442.066441 34.8658194,443.069117 34.828566,444.114113 L34.828566,444.114113 Z" id="Shape" fill="url(#linearGradient-13)"></path>
                        <path d="M531.599943,127.196186 L521.896358,128.910725 C520.906251,129.13813 519.866871,128.892514 519.082519,128.245787 C518.298166,127.599059 517.857568,126.624378 517.889717,125.607101 L517.889717,115.884409 C517.974382,113.570593 519.631128,111.616624 521.896358,111.158972 L531.599943,109.444433 C532.590051,109.217028 533.629431,109.462643 534.413783,110.109371 C535.198136,110.756099 535.638734,111.73078 535.606585,112.748057 L535.606585,122.470749 C535.52192,124.784565 533.865174,126.738533 531.599943,127.196186 Z M521.896358,114.953958 C521.778814,114.98173 521.693745,115.084013 521.687679,115.204866 L521.687679,124.927558 C521.686846,124.980668 521.709765,125.031367 521.750157,125.065768 C521.790549,125.100169 521.84418,125.114664 521.896358,125.105284 L531.599943,123.390745 C531.717488,123.362973 531.802556,123.26069 531.808623,123.139837 L531.808623,113.364873 C531.809456,113.311763 531.786537,113.261064 531.746145,113.226663 C531.705753,113.192262 531.652122,113.177766 531.599943,113.187146 L521.896358,114.953958 Z" id="Shape" fill="url(#linearGradient-14)"></path>
                        <path d="M77.4721698,160.410155 L67.7685849,162.124694 C66.7784771,162.352099 65.7390978,162.106483 64.9547452,161.459755 C64.1703926,160.813028 63.7297941,159.838347 63.7619434,158.82107 L63.7619434,149.098378 C63.8466081,146.784562 65.5033546,144.830593 67.7685849,144.372941 L77.4721698,142.658402 C78.4622776,142.430996 79.501657,142.676612 80.2860096,143.32334 C81.0703622,143.970068 81.5109606,144.944748 81.4788113,145.962026 L81.4788113,155.684717 C81.3941466,157.998533 79.7374001,159.952502 77.4721698,160.410155 L77.4721698,160.410155 Z M67.7685849,148.167927 C67.6510402,148.195699 67.5659719,148.297982 67.5599057,148.418835 L67.5599057,158.141527 C67.5590725,158.194636 67.581991,158.245336 67.6223829,158.279737 C67.6627749,158.314137 67.716406,158.328633 67.7685849,158.319253 L77.4721698,156.604714 C77.5897145,156.576942 77.6747828,156.474659 77.6808491,156.353806 L77.6808491,146.631114 C77.6816822,146.578004 77.6587637,146.527305 77.6183718,146.492904 C77.5779798,146.458503 77.5243487,146.444008 77.4721698,146.453388 L67.7685849,148.167927 Z" id="Shape" fill="url(#linearGradient-15)"></path>
                        <path d="M75.5627547,90.647229 L65.8591698,92.3617682 C64.869062,92.5891733 63.8296827,92.3435577 63.0453301,91.6968299 C62.2609775,91.0501022 61.820379,90.0754213 61.8525283,89.058144 L61.8525283,79.3354524 C61.937193,77.0216363 63.5939395,75.0676678 65.8591698,74.6100152 L75.5627547,72.895476 C76.5528625,72.6680709 77.5922419,72.9136866 78.3765945,73.5604143 C79.1609471,74.2071421 79.6015455,75.1818229 79.5693962,76.1991003 L79.5693962,85.9217918 C79.4847315,88.2356079 77.827985,90.1895765 75.5627547,90.647229 Z M65.8591698,78.4050013 C65.7416251,78.432773 65.6565568,78.535056 65.6504906,78.6559094 L65.6504906,88.378601 C65.6496574,88.4317109 65.6725759,88.4824103 65.7129679,88.5168111 C65.7533598,88.5512119 65.8069909,88.5657077 65.8591698,88.5563276 L75.5627547,86.8417885 C75.6802994,86.8140167 75.7653678,86.7117337 75.771434,86.5908803 L75.771434,76.8681887 C75.7722671,76.8150788 75.7493487,76.7643794 75.7089567,76.7299786 C75.6685647,76.6955779 75.6149336,76.6810821 75.5627547,76.6904621 L65.8591698,78.4050013 Z" id="Shape" fill="url(#linearGradient-16)"></path>
                    </g>
                </g>
            </g>
        </g>
    </g>
</svg>