<svg id="Layer_1" data-name="Layer 1" xmlns="http://www.w3.org/2000/svg" viewBox="0 0 200 200"><title>iconArtboard 17</title><path d="M142.72,142.34a51.37,51.37,0,0,0-13.8-25.46,92.47,92.47,0,0,0-14.51-11.55,24.77,24.77,0,0,0-6.59-8c-2.21-1.74-7.4-4.16-11.57-6.11L95.82,91l-5-5.12V54.17L56.69,74.63V102.4l7.61,7.53a41.23,41.23,0,0,1,.82,4.8c.54,4.13,1.15,8.81,3.67,12.15a18.11,18.11,0,0,0,5.78,4.33c.69,5.82,1.43,12,1.43,12l.31,2.64h67ZM71.18,125.08c-2-2.71-2.6-7-3.09-10.73-.37-2.84-.72-5.53-1.69-7.39a23.74,23.74,0,0,0-5.21-6.5V76.67l25.13-14.6V87.67l.34.41a23,23,0,0,0,7.59,5.53L95,94c3.82,1.78,9,4.21,11,5.74a22.05,22.05,0,0,1,5.43,6.36,105.48,105.48,0,0,0-18.54,1.57c-10.78,1.83-15.24,15.92-16.53,21.1C74.57,127.85,72.21,126.45,71.18,125.08Zm52.71,9.16a25.18,25.18,0,0,0-4.8-10.08c-3-3.63-8.81-6-10.77-6.55l1.72-5.75c.36.11,8.86,2.7,13.66,8.45a31,31,0,0,1,6.1,12.84Z"/><path d="M85.72,104.31a26.64,26.64,0,0,1,11.73-2.16l.23-3a29.34,29.34,0,0,0-13.23,2.43c-6.39,3-10.86,10.13-11,10.43L76,113.59C76,113.53,80.14,106.89,85.72,104.31Z"/></svg>