<svg id="Layer_1" data-name="Layer 1" xmlns="http://www.w3.org/2000/svg" viewBox="0 0 200 200"><title>iconArtboard 25</title><path d="M130.25,120.52H76.91C99.31,125.6,119.61,122.81,130.25,120.52Z"/><path d="M181.83,118.73l.06-.06-50-53.34L24.41,54.92l-6.7-.76s.74,2.5,2.24,6.51H36.49l14.46,3H21.12c.51,1.28,1.08,2.65,1.72,4.11h47.9l14.46,3h-61q.91,2,2,4.1H105l14.46,3H27.67c.71,1.35,1.45,2.72,2.24,4.1h97.46l4,3H31.67c.83,1.37,1.71,2.74,2.61,4.11H137l4,3H36.33c1,1.38,2,2.76,3,4.1H139.77a11.78,11.78,0,0,0-1.15.56,10.75,10.75,0,0,0-2.86,2.44H41.84q1.8,2.11,3.75,4.1h87.87a15.89,15.89,0,0,0-.59,2.09c-.06.31-.07.61-.1.91H48.69q2.39,2.17,5,4.1h79.67a10.84,10.84,0,0,0,1.82,3h-77a50.1,50.1,0,0,0,8.33,4.11H140a98.93,98.93,0,0,0,10.17,5.56c2.77,1.38,5.63,2.81,8.32,4.35a119.56,119.56,0,0,1,21.27,15.91l2.55,2.49V119.12ZM130.49,68.21l32.92,35.13-7.74-6.47-.44-.25a28.68,28.68,0,0,0-4.69-1.2L124,75.78,50,60.42Zm48.8,70.64a121.52,121.52,0,0,0-19.33-14c-2.76-1.59-5.66-3-8.47-4.43-9-4.5-16.82-8.39-15.67-14.43.6-3.14,2-5.29,4.26-6.58a12.24,12.24,0,0,1,6-1.37,22.31,22.31,0,0,1,3.25.26l.35.05a28.61,28.61,0,0,1,4.24,1l14.22,11.88,11.12,9.29Z"/><path d="M167.78,123.3a5.84,5.84,0,0,0,1.56,3.92l1.09-1a4.38,4.38,0,0,1-1.15-2.79,2.51,2.51,0,0,1,1.07-1.8c2.45-2,5.05,1.13,5.16,1.27l1.16-1c-1.25-1.51-4.37-3.77-7.25-1.49A4,4,0,0,0,167.78,123.3Z"/><path d="M162.39,113a3.16,3.16,0,0,0-.75.86c-1.53-1.29-4-2.39-6.3-.55a4,4,0,0,0-1.64,2.87,5.84,5.84,0,0,0,1.56,3.91l1.09-1a4.39,4.39,0,0,1-1.15-2.77,2.5,2.5,0,0,1,1.07-1.8c2.25-1.8,4.62.65,5.07,1.16a4.33,4.33,0,0,0,1,2l1.09-1a2.37,2.37,0,0,1-.64-1.5,1.29,1.29,0,0,1,.56-.92c1.27-1,2.65.56,2.81.74l1.16-1C166.45,113,164.35,111.46,162.39,113Z"/><path d="M148.3,105.91a2.77,2.77,0,0,0-1.12,2,3.85,3.85,0,0,0,1,2.64l1.09-1a2.37,2.37,0,0,1-.64-1.51,1.29,1.29,0,0,1,.56-.91c1.27-1,2.66.56,2.81.74l1.16-1C152.36,105.86,150.26,104.35,148.3,105.91Z"/><path d="M138.91,105.91a2.77,2.77,0,0,0-1.12,2,3.85,3.85,0,0,0,1,2.64l1.09-1a2.37,2.37,0,0,1-.64-1.51,1.29,1.29,0,0,1,.56-.91c1.28-1,2.65.57,2.81.74l1.16-1C143,105.86,140.87,104.35,138.91,105.91Z"/></svg>