<svg id="Layer_1" data-name="Layer 1" xmlns="http://www.w3.org/2000/svg" viewBox="0 0 200 200"><title>iconArtboard 27</title><path d="M143,99.61a120.94,120.94,0,0,0-8.27-27.48s0,0,0-.07l-.21-.44c-.14-.31-.27-.62-.42-.93s-.38-.77-.57-1.16c-.27-.55-.54-1.1-.81-1.64s-.62-1.17-.93-1.74-.57-1-.87-1.56-.63-1-.95-1.56-.62-1-.94-1.49-.63-.92-.94-1.37-.68-1-1-1.43-.62-.8-.93-1.19-.74-.93-1.11-1.37-.61-.68-.91-1-.8-.88-1.21-1.29-.59-.56-.88-.84-.86-.82-1.3-1.2c-.29-.25-.58-.47-.88-.71-.46-.37-.91-.74-1.38-1.08-.29-.21-.59-.4-.88-.6-.48-.32-1-.65-1.43-.94-.3-.18-.61-.34-.92-.5-.49-.27-1-.54-1.46-.78-.32-.15-.65-.28-1-.42-.49-.21-1-.43-1.46-.61s-.72-.23-1.09-.34-.94-.31-1.42-.43-.84-.18-1.27-.26-.86-.19-1.3-.26-1-.11-1.52-.16-.74-.09-1.11-.11c-.63,0-1.26,0-1.9,0-.27,0-.53,0-.8,0q-1.37.06-2.76.26c-11.92,1.67-22.29,10.27-30,24.87-11.69,22.16-13.87,51.9-8,63.69,10.59,21.31,27.35,21.87,28.06,21.88h.64l54.3-55Zm-40,36.32c-1.86-.27-7.56-1.74-11.52-9.63l-.11-.23,0-.07a9.55,9.55,0,0,1-.42-1.09v0c-1.17-3.73-1.11-10,.25-16.47h0q.22-1.06.49-2.12l.06-.22q.25-1,.53-1.9l.14-.45c.17-.55.34-1.1.53-1.64.08-.24.18-.48.26-.72.17-.45.33-.9.51-1.35s.26-.61.39-.91.32-.74.48-1.11.34-.69.51-1,.31-.63.47-.94.38-.69.59-1,.26-.46.41-.7.46-.71.7-1.06.32-.49.5-.74.5-.66.76-1,.4-.52.62-.78.54-.59.82-.88.48-.53.74-.78.59-.51.89-.76.56-.49.86-.72.68-.44,1-.66.6-.41.92-.58.87-.39,1.31-.57c.28-.12.55-.26.84-.36a13.18,13.18,0,0,1,2.36-.56,12.36,12.36,0,0,1,1.87-.11,11.13,11.13,0,0,1,4.23.88l.32.17a12.5,12.5,0,0,1,1.58.85c.15.1.3.22.45.33a15,15,0,0,1,1.31,1c.17.15.34.34.51.5.38.36.75.73,1.11,1.13.21.24.4.51.61.76s.61.74.89,1.14q.68,1,1.32,2.06c3.64,6.22,5.3,13.85,5.75,16.21ZM87.57,152.3c-2.6-.28-13-2.13-21.38-14.29a11,11,0,0,0,1.93.22c6.41,0,14.73-4.74,21.32-9.35,3.77,6.67,8.74,9,11.66,9.72Zm43.9-44.47A57.57,57.57,0,0,0,126.21,93q6.14-8.29,8-13.84a124.48,124.48,0,0,1,5.6,20.18Z"/></svg>