<svg id="Layer_1" data-name="Layer 1" xmlns="http://www.w3.org/2000/svg" viewBox="0 0 200 200"><title>iconArtboard 6</title><path d="M178.06,166.48h-.8a7.89,7.89,0,0,0-1.16-15.69H49.33c13.46-10.21,41-30.16,58.12-36.06,23-7.94,48.5-2.83,48.75-2.77l4.21.87-2.76-3.3c-.19-.23-19.59-22.67-59.78-4.92-26.56,11.72-43.79,30.22-52.34,41.24C50,136.78,60,121.37,82.66,97.43A141.56,141.56,0,0,1,111.45,74a3.08,3.08,0,0,0,.06.33c.67,1.85,2.9,2.77,6.77,2.77a39,39,0,0,0,5.13-.4,111.09,111.09,0,0,0,21.85-5.79c9.82-3.58,27.14-11.46,28.14-17.52,1.59-.1,2.48-.11,2.55-.11v-3c-.08,0-1.38,0-3.66.19-1.73-1.42-5.3-1.76-10.88-1a111,111,0,0,0-21.85,5.79,111,111,0,0,0-20.46,9.61,29.59,29.59,0,0,0-5.77,4.51,144.42,144.42,0,0,0-32.86,26c-22.65,24-32.95,39.72-37.63,49.26.54-8.88,2.28-23.75,7.8-35.7,8.46-18.31,24.4-38.46,24.56-38.65l3.45-4.34-5.17,2c-1.06.41-26.15,10.4-35.43,33.91-5.12,13-4.21,26.83-2.3,36.86A99.2,99.2,0,0,1,33.5,79.23a93.63,93.63,0,0,1,9.43-22.83,2.86,2.86,0,0,0,1.66.52c5.56,0,16.63-10.89,18-12.3A74.41,74.41,0,0,0,72.32,33c2.17-3.38,3-5.75,2.49-7.34,1.63-.8,2.62-1.17,2.67-1.19l-1-2.82a41.07,41.07,0,0,0-4.73,2.19c-5.67.46-16.27,10.87-17.65,12.25-1.22,1.22-9.51,9.65-11.74,15.51A95.93,95.93,0,0,0,30.6,78.45a101.81,101.81,0,0,0,7.1,72.34H23.9a7.89,7.89,0,0,0-1.16,15.69h-.8a5.94,5.94,0,1,0,0,11.89H178.06a5.94,5.94,0,1,0,0-11.89Zm-79-59.13c9.94-4.39,19.48-6.61,28.2-6.61a44.35,44.35,0,0,1,14.4,2.29,37,37,0,0,1,10,5.17c-8.79-1.14-27.43-2.42-45.19,3.7-13.78,4.75-33.56,17.92-48.06,28.4,7.84-6.9,17.89-15,27.65-20.51,19.92-11.3,30.33-13.51,41.58-13.51v-3c-11.75,0-22.56,2.28-43.06,13.91-10.67,6.05-21.66,15.05-29.83,22.36A133.58,133.58,0,0,1,99.1,107.35ZM40.86,103c6.21-15.73,20.35-25.27,28.21-29.54C63.72,80.65,54,94.6,47.93,107.67c-4.27,9.23-6.34,19.92-7.36,28.55a93.15,93.15,0,0,1,2.74-24.76c4.83-18.57,13.89-24.52,14-24.58l-1.59-2.54c-.41.26-10.13,6.52-15.28,26.36A92.53,92.53,0,0,0,37.62,130C36.86,121.67,37.29,112,40.86,103Z"/></svg>