<svg id="Layer_1" data-name="Layer 1" xmlns="http://www.w3.org/2000/svg" viewBox="0 0 200 200"><title>iconArtboard 3</title><path d="M100,55a45,45,0,1,0,45,45A45.06,45.06,0,0,0,100,55Zm1.8,30,4-8.13,4,8.13,9,1.3-6.5,6.33,1.53,8.94-8-4.22-8,4.22,1.53-8.94-6.5-6.33ZM56.5,100C56.5,76,76,57.82,100,57.82c-24,25.44-28.35,54.05,0,84.36C76,142.18,56.5,124,56.5,100Zm53.4,16.86-2.14,5.78-3.29-5.21-6.16-.24,3.94-4.74-1.67-5.93,5.73,2.28,5.13-3.42-.4,6.15,4.84,3.82Zm16.92-7.34-3.29,5.21-2.14-5.78-6-1.52,4.84-3.82-.4-6.15,5.13,3.42,5.73-2.28L129,104.53l3.94,4.74Z"/></svg>