<svg id="Layer_1" data-name="Layer 1" xmlns="http://www.w3.org/2000/svg" viewBox="0 0 200 200"><title>iconArtboard 1</title><g id="Group-9-Copy"><path d="M105.54,143.34c-7.94,0-19.77-3.38-25.24-12.11a8.78,8.78,0,0,1-8.7,1.91c-4.26-1.27-5.81-4.39-7.11-7.22a6.62,6.62,0,0,1-6.57.28,5.6,5.6,0,0,1-2.82-5.5A4.73,4.73,0,0,1,52,119.8a3.61,3.61,0,0,1-1.39-2.68,4.68,4.68,0,0,1,0-1.09c-6-.82-11.58-4.88-11.58-11.76,0-6.68,4.36-11.89,10.46-13a6.41,6.41,0,0,1-.21-2.88A6.21,6.21,0,0,1,52,84.27,7.07,7.07,0,0,1,57.58,83c-.61-3.67-.32-8.89,6.12-11.67,4.92-2.12,9.2-1,12.77,3.39a4.49,4.49,0,0,1,3.17-2.33,4.44,4.44,0,0,1,3.44.72C84.22,67,87.91,56.66,99.83,56.66c11.56,0,16.08,5.61,17.82,9.61a8.86,8.86,0,0,1,9.44-.73,8.13,8.13,0,0,1,4.28,5,9.28,9.28,0,0,1,.39,3.56c6.6-2.24,14.73-4,21.4,2.74,4.07,4.14,6.15,8.65,6,13a12.09,12.09,0,0,1-2.71,7.29c2.55,1.35,4.61,3.67,4.48,6.65a7.16,7.16,0,0,1-2.74,5.2,6.67,6.67,0,0,1-3,1.35c.33,2.45.07,5.66-2.35,7.15a8.69,8.69,0,0,1-6.67.93,9.05,9.05,0,0,1-6.12,9.5c-5.39,2.13-9.07-.26-11.41-2.59-3.22,10-8.73,15.15-18.51,17.57A19.66,19.66,0,0,1,105.54,143.34Zm-24.3-16.74.83,1.67c5.4,10.84,21.62,13.11,27.35,11.68,7.93-2,13.87-5.79,17.1-18.07l.75-2.84,1.86,2.27c2.4,2.93,5.13,5.63,9.82,3.78a6.39,6.39,0,0,0,3.8-3.43,6.69,6.69,0,0,0,0-4.89l-1.42-3.32,3.35,1.33c2.85,1.13,4.87,1.17,6.58.12,1.41-.87,1.12-4.11.64-5.64l-.73-2.39,2.45.48a3.35,3.35,0,0,0,2.7-.74,4.12,4.12,0,0,0,1.6-3c.1-2.15-2.26-3.85-4.49-4.51l-2.56-.76,2-1.79a9.47,9.47,0,0,0,3.3-6.82c.1-3.49-1.73-7.34-5.17-10.83-6.26-6.37-14.07-3.55-21-1.05l-3.75,1.36,1.93-3.5a5.82,5.82,0,0,0,.28-4.31,5.19,5.19,0,0,0-2.73-3.16,6.08,6.08,0,0,0-7.62,1.66l-1.89,2.33-.73-2.91c-.91-3.6-4.15-9.65-15.7-9.65C88,59.66,86,72.59,85.63,76.55l-.37,4.35-2.38-3.66c-1.41-2.16-2.33-2-2.67-1.91-.81.16-1.2.61-1.94,3l-1,3.13-1.73-2.79c-3.09-5-6.39-6.39-10.68-4.54-5.36,2.31-5,6.66-3.74,11l1.08,3.83-3.34-2.17a4.17,4.17,0,0,0-5.16,0,3.28,3.28,0,0,0-1.46,2.18A3.74,3.74,0,0,0,53,91.72l1.81,2.4h-3a9.76,9.76,0,0,0-9.79,10.15c0,6.54,6.47,8.91,10.82,8.91h3.55l-2.48,2.55a1.57,1.57,0,0,0-.37,1.16.73.73,0,0,0,.19.51,2.47,2.47,0,0,0,2.54-.12l3.36-1.82-1.23,3.62c-.12.34-1.08,3.4.91,4.47,1.77,1,3.74-.08,4.63-1L65.47,121l.94,1.93c.23.48.46,1,.68,1.45,1.27,2.77,2.27,5,5.38,5.89s4.81-.4,6.69-2Z"/><g id="Path-24"><path d="M79.77,107.12l-2.81-1s1.39-3.87-.77-4.77c-2.36-1-4.17,1.42-4.25,1.52l-2.43-1.76c1.11-1.55,4.17-4.08,7.84-2.53C81.19,100.15,80.61,104.86,79.77,107.12Z"/></g><g id="Path-25"><path d="M120.74,117.39l-2.92-.69a5.18,5.18,0,0,0-.44-3.6,2.62,2.62,0,0,0-2-1,2.66,2.66,0,0,0-2.12.56c-1.2,1-1.54,3.27-1.57,4l-3-.11c0-.41.22-4.08,2.61-6.13a5.63,5.63,0,0,1,4.41-1.27,5.53,5.53,0,0,1,4.11,2.25C121.52,113.77,120.82,117,120.74,117.39Z"/></g><g id="Path-26"><path d="M106.28,100.42l-2.79-1.1a1.88,1.88,0,0,0,.06-1.17c0-.05-.08-.17-.39-.28-.75-.26-1.15.44-1.33.89L99,97.68A4,4,0,0,1,104.15,95a3.54,3.54,0,0,1,2.13,1.87A4.88,4.88,0,0,1,106.28,100.42Z"/></g><g id="Path-24-2" data-name="Path-24"><path d="M140.26,99.7l-2.81-1s1.39-3.87-.77-4.77c-2.37-1-4.17,1.42-4.25,1.52L130,93.66c1.11-1.55,4.18-4.07,7.84-2.53C141.69,92.74,141.11,97.44,140.26,99.7Z"/></g><g id="Path-24-3" data-name="Path-24"><path d="M99.45,83.58c-.26-.25-2.54-2.48-2.59-5.15a4.58,4.58,0,0,1,1.39-3.35c2.91-2.93,6.6-1.2,8.14.13l-2,2.27c-.24-.2-2.41-1.94-4.05-.29a1.59,1.59,0,0,0-.52,1.18,5.45,5.45,0,0,0,1.65,3Z"/></g></g></svg>