<svg id="Layer_1" data-name="Layer 1" xmlns="http://www.w3.org/2000/svg" viewBox="0 0 200 200"><title>iconArtboard 4</title><path d="M101.32,51.89,100,49.47l-1.32,2.42c-1.41,2.6-34.42,63.84-19.76,88.52,4,6.71,11.08,10.11,21.07,10.11s17.08-3.4,21.07-10.11C135.74,115.73,102.73,54.49,101.32,51.89Zm-3.73,20.4a4.21,4.21,0,1,1-4.17,4.21A4.19,4.19,0,0,1,97.59,72.29Zm3,69.15s-.28,0-.72,0c-3.16,0-15.76-1-17.24-16.33-1.59-16.4,6-34.89,6.3-35.67l2.85.9c0,.11-2.32,10.69-1.67,26.95.63,15.54,10.63,21.08,11.06,21.31L105.6,141Z"/></svg>