<svg id="Layer_1" data-name="Layer 1" xmlns="http://www.w3.org/2000/svg" viewBox="0 0 200 200"><title>iconArtboard 24</title><path d="M145.87,87.23,144.66,85c-3.89-7.29-7.91-14.82-19.28-16.23-3.25-.4-6.88.75-10.39,1.86a48.12,48.12,0,0,1-6.22,1.67,29.5,29.5,0,0,1-6.71.11,32.07,32.07,0,0,0-8.09.24,22.2,22.2,0,0,0-6.37,2.63,19.86,19.86,0,0,1-4.55,2,25.81,25.81,0,0,1-6,.45,19.7,19.7,0,0,0-6.68.71C66.55,79.74,59.61,82.72,56.31,88c-4.26,6.75-4.32,17.11-2,19.54a12.24,12.24,0,0,0,5.23,2.81,23.23,23.23,0,0,1,3.28,1.3,5.33,5.33,0,0,1,.64.45,17.59,17.59,0,0,1-3.74,4c-1.06.88-2.67,2.2-2,4.32l.92,2.05,2.07.08h.31c4.05,0,9-3,12.46-6.26.91-.15,1.84-.35,2.8-.58a21.57,21.57,0,0,1,8-.83,8,8,0,0,1,2.21.63,30.13,30.13,0,0,1-5.15,5.14c-1.57,1.3-3.2,2.64-2.47,4.83A3.28,3.28,0,0,0,82,127.57h.41c5.92,0,13.67-5,18.65-9.94l.24-.09c3-1.12,6.85-2.52,8.49-2.67a33.43,33.43,0,0,1,3.74-.14,37.66,37.66,0,0,1-8.37,9c-2.1,1.73-3.77,3.11-3,5.38a3.34,3.34,0,0,0,3.24,2.23h.51c10,0,24.56-11.37,29.33-19a37,37,0,0,0,3.15-6.34c4.09-3.18,7-6.61,8.13-10A10.46,10.46,0,0,0,145.87,87.23ZM143.72,95a16.2,16.2,0,0,1-3.84,5.67,14,14,0,0,0-1-8.82c-1.23-2.34-3.94-5.18-9.83-5.41-8.95-.37-10.11,6.93-11.28,14a90.07,90.07,0,0,1-1.82,8.95,18.76,18.76,0,0,1-.84,2.4,34,34,0,0,0-5.55.09,24,24,0,0,0-4.75,1.23c2.89-4.63,5.1-11.2,2.66-15.82-1-1.91-3.2-4.23-7.92-4.42-7.22-.26-8.26,5.7-9.14,11a66,66,0,0,1-1.33,6.53,13.27,13.27,0,0,1-.94,2.41,11.09,11.09,0,0,0-3.37-1,16,16,0,0,0-2.22-.15,25.58,25.58,0,0,0-5.69.76l.07-.1c2.1-3.35,3.7-8.17,1.85-11.66-.65-1.24-2.32-3.34-6.16-3.49-5.74-.27-6.56,4.64-7.15,8.21-.19,1.17-.43,2.49-.77,3.86-.16-.1-.31-.23-.47-.32a26,26,0,0,0-3.69-1.47,9.55,9.55,0,0,1-4-2.06c-1-1.23-1.5-9.77,2.33-15.85,2.81-4.46,9-7.1,12.52-8.28a18.19,18.19,0,0,1,5.7-.55,28.52,28.52,0,0,0,6.66-.53A22.28,22.28,0,0,0,89,77.9a20,20,0,0,1,5.5-2.32,28.86,28.86,0,0,1,7.36-.19,32,32,0,0,0,7.38-.15,50.14,50.14,0,0,0,6.63-1.77c3.36-1.06,6.53-2.07,9.12-1.74,9.82,1.22,13.15,7.45,17,14.67l1.22,2.26A7.48,7.48,0,0,1,143.72,95Z"/></svg>