<svg id="Layer_1" data-name="Layer 1" xmlns="http://www.w3.org/2000/svg" viewBox="0 0 200 200"><title>iconArtboard 21</title><path d="M61.61,112.81s-.36,4.31-.59,6.22-.53,3.89-.82,5.58c-1.58,8.93-3.68,13.26-3.7,13.3l-1.07,2.17h90l-1.62-2.35c-.17-.24-17.1-24.69-37.45-43.71C88.06,77,64.71,57.25,57.28,60.21c-4.22,1.68-2.67,6.63-.53,13.49.44,1.42.92,3,1.41,4.62.69,2.36,1.25,4.51,1.72,6.56l.1.43.31.31c1.55,1.52,3.89,3.75,5.16,5C64.6,91.9,63.1,94.19,62,95.75l-.31.44,0,.54c.16,2,.24,4,.24,6q0,2.37-.07,4.57C61.83,109.25,61.61,112.81,61.61,112.81ZM92,93.72l2.53,1.71L92.8,97.91,90.27,96.2Zm-1.69-4.34-1.58,2.55L82.07,87.8l1.58-2.55Zm-19-16.76,10.83,7-1.62,2.53-10.83-7Z"/></svg>