<svg id="Layer_1" data-name="Layer 1" xmlns="http://www.w3.org/2000/svg" viewBox="0 0 200 200"><title>iconArtboard 16</title><path d="M111.08,129.51a58,58,0,0,0,.08-6.22l.25-.25-.26-.26a188,188,0,0,0-2-18.92l.08-.08-.11-.11c-.08-.52-.14-1-.22-1.52-3.6-23.88-7-45-7.08-45.16l-3-.06c0,.12-1.24,6.15-2.86,14.63l-.18.18.13.13c-1.68,8.77-3.77,20.09-5.44,30.27-3.17,19.29-2.34,31.94,2.47,37.6a10.06,10.06,0,0,0,14.8.23c1.89-2.2,2.91-5.46,3.3-9.76l.36-.36Zm-2.94-.64L97.65,139.56a6,6,0,0,1-1.54-.94l12.11-12.34C108.21,127.18,108.19,128,108.14,128.87ZM92,128.13l15.31-15.59q.18,1.52.33,3L92.4,131C92.22,130.1,92.08,129.14,92,128.13Zm16-8.7q.1,1.37.17,2.67l-13.9,14.16a13.6,13.6,0,0,1-.9-1.93Zm-1.17-10.69-15.12,15.4q0-1.19,0-2.47l14.85-15.13C106.59,107.28,106.69,108,106.79,108.74ZM101.25,72.5l-3,3L98.75,73,101,70.89Zm-4,8.32,4.54-4.63.34,2.16-5.46,5.56Zm-1.52,8.35,7-7.12.29,1.88-7.76,7.9Zm-1.19,7.67,9-9.22.38,2.45L93.8,100.47c.21-1.25.42-2.5.64-3.77ZM93,105.58l11.59-11.81.39,2.57L92.5,109C92.64,107.92,92.8,106.76,93,105.58Zm-1,8.25,13.52-13.77.38,2.53,0,.22L91.76,117.26C91.82,116.15,91.9,115,92,113.83Zm8.16-48.13.25,1.58-.69.66ZM105.48,138a6,6,0,0,1-4,2l6-6.09A10.14,10.14,0,0,1,105.48,138Z"/></svg>