<svg id="Layer_1" data-name="Layer 1" xmlns="http://www.w3.org/2000/svg" viewBox="0 0 200 200"><title>iconArtboard 2</title><path d="M125.93,56.06l-1-3.6-3.31,1.73c-1.77.92-43.39,22.78-52.52,36.89a22.14,22.14,0,0,0-2.54,19.5c2.52,7.69,8.87,14.53,17.4,19.08-.41,5.64.29,10.9,2.56,14.29A7.54,7.54,0,0,0,93,147.54h.15a5.23,5.23,0,0,0,3.91-1.49c1.86-2,1.8-5.27,1.62-10.69a48.31,48.31,0,0,0,13.45,2.29c8.09,0,15.28-3.27,20-13.09C139.8,108.53,127.38,61.39,125.93,56.06Zm-1,49.06-16.6,1.5-.27-3,16.6-1.5Zm-1.17-15.83.44,3L114,93.75l-.44-3Zm-6.65-22.21,2.62,1.46L112,82.45,109.35,81ZM98.71,76.8,103,84.95l-2.65,1.41-4.32-8.14Zm-12.1,8.65,7.19,9.64-2.41,1.79-7.19-9.64Zm-2.9,26.9L73.89,99.59l2.38-1.83,9.82,12.76Zm13.8,6.1c-1.76,18.45,2.59,27.47-4.38,27.59-9.52.17-9.63-18.66-3.79-32.15,6.63-15.3,20-25.5,20-25.5S98.88,104.11,97.51,118.45Zm6,1.84-.21-3,21.86-1.51.21,3Z"/></svg>