<svg id="Layer_1" data-name="Layer 1" xmlns="http://www.w3.org/2000/svg" viewBox="0 0 200 200"><title>iconArtboard 22</title><path d="M147.75,84.24l-.37-.33-.36,0v-.1l-1.87,0H145l-1-.08h0c-13.64-1-24-1-36.93-1h-6.61v0l-1.84,0h0c-4.81,0-9.24,0-13.46,0H81.49c-11.36.09-19.09.34-25.5.83l-4.11.09,0,.35c-2.66,1.13-7.38,9.66-8.18,11.75a3,3,0,0,0,.07,2.63c.66,1.26,2.57,3.1,10.87,4.79a63.71,63.71,0,0,0,3.47,11.22c.9,2.05,2,3,3.4,2.76,2-.32,3.78-4.43,5.27-12.23,9.44,1,20.85,1.49,33.15,1.49,12.63,0,23.42-.43,32.15-1.25,1.49,7.71,3.24,11.76,5.25,12.08a2.27,2.27,0,0,0,.38,0c1.19,0,2.21-.94,3-2.8a63.17,63.17,0,0,0,3.42-11c7.28-1.46,11.17-3.41,12.2-6.28C156.92,94.63,156.63,92,147.75,84.24Zm-18.4,2.18c-1.22,4.33-3.74,9.91-6,9.76a1.89,1.89,0,0,1-.92-.43c-.86-2.44-2.07-4.91-3.7-6.17-.47-1.24-.86-2.45-1.13-3.4Zm-59,2.36c-.17-.48-.33-1-.48-1.44l-.18-.59-.11-.41,1.09,0,10.61-.22,0,.15c-.06.2-.13.43-.2.65-.24.78-.52,1.63-.86,2.54-1.75,1.21-3.06,3.84-4,6.42l-.08,0a.82.82,0,0,1-.84.14c-1.74-.23-3.61-3.65-4.89-7.16Zm29.07,3h0c1.18,0,3,3.91,4.16,8.53H95.22C96.39,95.66,98.27,91.72,99.42,91.72ZM96.25,87.8l-.16.52c-.17.52-.34,1-.52,1.55l-.1.27c-.22.59-.46,1.17-.7,1.72l0,.07A14,14,0,0,1,93,94.85l0,0a4.41,4.41,0,0,1-.83.8l-.09.08a1.73,1.73,0,0,1-.91.33,1.54,1.54,0,0,1-.72-.21l-.09-.06c-.07,0-.14-.11-.22-.16a3.77,3.77,0,0,1-.49-.41c-.1-.1-.21-.24-.31-.36s-.34-.41-.51-.65l-.21-.32c-.22-.34-.44-.69-.65-1.08l0-.07a28.84,28.84,0,0,1-1.44-3.18l-.08-.21-.17-.47c-.36-1-.66-2-.92-2.9l11.48-.24v.06c0,.2-.11.4-.16.6C96.51,86.88,96.39,87.34,96.25,87.8ZM78.89,97.28l.18-.53c.86-2.36,1.82-4.18,2.6-4.79l.53-.24c1.18,0,3,3.91,4.16,8.53H78C78.22,99.42,78.52,98.36,78.89,97.28Zm34.71-11.19c-.18.67-.38,1.3-.59,1.92s-.37,1.07-.57,1.59l0,.08A29,29,0,0,1,111,92.75l-.12.24c-.18.32-.36.61-.54.9s-.21.33-.31.48-.26.33-.38.49-.29.36-.43.5a3.74,3.74,0,0,1-.34.28,3.25,3.25,0,0,1-.42.32,1.59,1.59,0,0,1-.72.22h0c-2.24-.05-4.49-5.66-5.63-10.32ZM113.29,97c1.08-3,2.35-5.26,3.21-5.26h0a.84.84,0,0,1,.19.08l.08,0,.3.17a11.91,11.91,0,0,1,2.45,4.52l.2.59c.38,1.14.69,2.26.91,3.14H112.3C112.59,99.11,112.93,98,113.29,97Zm-52.08,16.9a6.54,6.54,0,0,1-.32-.65,63.84,63.84,0,0,1-3.56-12q-.23-1.11-.44-2.21l-.1-.52c-.15-.8-.28-1.57-.41-2.34l-.14-.89c-.08-.53-.16-1-.24-1.55s-.13-.89-.19-1.31-.11-.81-.16-1.2l-.13-1-.09-.76c-.06-.55-.12-1.05-.17-1.51l-.06-.53-.07-.7v-.08l11.12-.23c-.25,2.51-1,10-2.2,16.67l-.15.86C63,108.76,62.07,112.53,61.21,113.88Zm76.8-.56a6.54,6.54,0,0,1-.32.65c-.86-1.35-1.8-5.09-2.67-9.9l-.13-.75c-1.17-6.71-2-14.29-2.23-16.83l4.11.09,7,.15c0,.26-.05.55-.09.86l0,.38-.07.65-.06.49-.08.68-.07.54-.12.95,0,.39q-.09.71-.2,1.47l0,.23q-.1.67-.2,1.37l-.06.37q-.1.66-.22,1.35l-.06.37q-.13.75-.27,1.51l0,.24A70.86,70.86,0,0,1,138,113.32Z"/></svg>