<svg id="Layer_1" data-name="Layer 1" xmlns="http://www.w3.org/2000/svg" viewBox="0 0 200 200"><title>iconArtboard 5</title><path d="M142.5,113.21c-.21-.65-5.23-15.82-15.19-15.82-6.63,0-10.53,4.83-12.44,8.19-1.24-5.35,2.62-11.66,6.09-17.33.55-.9,1.09-1.77,1.58-2.62,6.54-11.09-3-28.78-3.36-29.53l-2.45-4.5-.36,5.11c0,.1-.72,9.52-4.85,14.25a10.74,10.74,0,0,1-5.95,3.65A34.29,34.29,0,0,0,108.34,56a25.63,25.63,0,0,0-12.2-19.13L93.05,35.2,94,38.58c0,.17,4.4,16.86-8.93,27C75,73.27,75.31,89.16,75.52,98.66c0,1.87.08,3.93,0,5.13C67.42,99,71.44,87,71.62,86.45l1-2.78-2.81.86c-.17.05-16.81,5.36-12.3,22.37,1.78,6.73,6.07,9.39,9.85,11.73,4,2.45,7.09,4.39,7.09,10.57,0,19.63,12.81,35.6,28.54,35.6s28.54-16,28.54-35.6a29.74,29.74,0,0,0-.8-5.63c-.68-3.35-1.39-6.8.12-8.27.95-.92,3.43-1.7,9.93-.17l2.59.61Zm-13.79-.06c-2.69,2.61-1.77,7.08-1,11a27.46,27.46,0,0,1,.74,5c0,18-11.46,32.6-25.54,32.6S77.4,147.17,77.4,129.2c0-7.85-4.33-10.53-8.51-13.12-3.63-2.24-7.05-4.36-8.53-9.94C57.61,95.75,64.07,90.63,68,88.56c-1.18,6-.69,14.83,7.31,18.49a2,2,0,0,0,2-.11c1.41-.93,1.36-3.25,1.25-8.34C78.32,89.67,78,74.74,86.86,68c10.86-8.27,11.24-20.4,10.62-26.46a22.81,22.81,0,0,1,7.87,14.81c1.33,11.79-3.59,19-3.64,19l-1.37,1.94,2.34.4c.25,0,6.07,1,11.08-4.76,2.65-3,4.07-7.5,4.82-10.94,2.3,5.68,5.24,15.55,1.37,22.11-.49.83-1,1.69-1.56,2.58-4.34,7.09-9.73,15.9-4.82,23.35l1.69,2.56,1-2.91c0-.09,3.24-9.3,11.07-9.3,5.71,0,9.65,7.31,11.37,11.26C133.79,110.82,130.59,111.32,128.71,113.15Z"/><path d="M112.34,118.36c-2,0-4.49-4.35-4.49-9.76V91.37l-2,.79c-1.32.51-5.2,1.56-7.33.26a3.72,3.72,0,0,1-1.62-3,76.58,76.58,0,0,1,0-15.22l.4-3.44-2.78,2.06c-.41.31-10.16,7.63-10.16,18.08v44.43c0,12.68,8.32,23,18.55,23s18.55-10.32,18.55-23C121.4,124.55,118.1,118.36,112.34,118.36Zm-11.25,8.86a33.54,33.54,0,0,0,4.74,4.26c2.66,2.08,4.59,3.58,4.89,6.59a7,7,0,0,1-1.61,5.56,6.49,6.49,0,0,1-4.9,2.06c-7.5,0-10.56-5.64-10.56-19.46a25.34,25.34,0,0,1,6.06-16.52C98.74,115.18,97.91,123.62,101.09,127.23Z"/></svg>