<svg id="Layer_1" data-name="Layer 1" xmlns="http://www.w3.org/2000/svg" viewBox="0 0 200 200"><title>iconArtboard 8</title><path d="M173.38,99.72l-73.1-73.1L64.56,62.34,46.68,80.22h0L26.62,100.28,56.1,129.75l24.49,24.49h0l19.14,19.14,20.05-20.05v0l17.65-18L155.19,118h0Zm-13.81-1.23-8.46-8-19.13,8H115.67a15.7,15.7,0,0,0-14.29-12.61V67.37l8.76-19.62-8.76-8.52V32L118.16,48.8l-15,35.76a17.05,17.05,0,0,1,13.39,11.62l34.54-14.39,16.79,16.7Zm-6.23,1.5a4.34,4.34,0,0,1-.28,1.5h0a4.3,4.3,0,0,1-8.11,0h0a4.15,4.15,0,0,1,0-3h0a4.3,4.3,0,0,1,8.11,0h0A4.34,4.34,0,0,1,153.34,100Zm-52,51.8a4.09,4.09,0,0,1-3,0,4.35,4.35,0,0,1,0-8.16,4.09,4.09,0,0,1,3,0,4.35,4.35,0,0,1,0,8.16ZM93.81,108a8.59,8.59,0,1,1,12.09-.06A8.55,8.55,0,0,1,93.81,108Zm4.58-63.61a4.09,4.09,0,0,1,3,0,4.35,4.35,0,0,1,0,8.16,4.09,4.09,0,0,1-3,0,4.35,4.35,0,0,1,0-8.16ZM82.87,97.44A17.77,17.77,0,0,1,93.93,85.36L83.37,47.77l15-15v7l-7.73,8,7.73,18.49V85.92A16.09,16.09,0,0,0,84.17,98.49H69.35l-19-8.5-8.41,8.5H32.65l16.9-16.9ZM57,100a4.34,4.34,0,0,1-.28,1.5h0a4.3,4.3,0,0,1-8.11,0h0a4.15,4.15,0,0,1,0-3h0a4.3,4.3,0,0,1,8.11,0h0A4.34,4.34,0,0,1,57,100Zm30.36,14.44a17.3,17.3,0,0,1-4.61-8.28L48.81,118.22,32.08,101.49H42l8.35,7.85,18.89-7.85H83.79a15.73,15.73,0,0,0,14.59,16.42v11.6l-8.45,18.86,8.45,8.35v11.07L81.69,151.1l11.57-32.8A17.36,17.36,0,0,1,87.35,114.43Zm14,53V156.84l8-8.48-8-19.15V117.88A16.15,16.15,0,0,0,116,101.49h16.34l18.8,8.4,8.31-8.4h7.93L151.87,117l-35.16-10.25a17.55,17.55,0,0,1-13.26,12.41l15,31.31Z"/></svg>