<svg id="Layer_1" data-name="Layer 1" xmlns="http://www.w3.org/2000/svg" viewBox="0 0 200 200"><title>iconArtboard 7</title><path d="M194.88,142.6c-.18-.19-17.93-19.29-32.81-33.23C152,100,149.26,98.66,147.77,98.66c-1.64,0-4.55,1.21-13.74,10.18-9.57,9.34-16.86,17.77-16.92,17.84a2.89,2.89,0,0,1-2.35,1.13,2.85,2.85,0,0,1-2.05-1.62c-.17-.31-16.86-31.2-33-54.74C66.79,52.67,62,50.5,59.46,50.5s-7,2.43-18.54,21.41c-17,28-36.63,69.67-36.82,70.08a5.36,5.36,0,0,0,0,5.23,5.43,5.43,0,0,0,4.77,2.29h183c3,0,4.06-1.37,4.42-2.19S197,144.8,194.88,142.6ZM59.63,68c-7,.28-13.55,4.35-17.62,6.95l.91-1.52c11.29-18.53,15.08-20,16-20,1.28,0,5.57,1.91,17.75,19.64l.14.2C72.72,71,66.4,67.82,59.63,68Zm88.47,40.21a46,46,0,0,0-10.19,1.17c7.86-7.51,9.86-7.92,10.15-7.93s2.31.69,10.92,8.63A36.69,36.69,0,0,0,148.1,108.25Z"/></svg>