<svg id="Layer_1" data-name="Layer 1" xmlns="http://www.w3.org/2000/svg" viewBox="0 0 200 200"><title>iconArtboard 19</title><path d="M147.35,107.15l-8.82-5.6V95.44L128.94,88v7.56l-17.82-5.33-1.76-3.43,2.12-5.55-1.85-2c-2.71.85-7.37,2.59-8.06,4.8-.18.6-.42,1.33-.64,2l-6.11-2.72-3.67-5.46V66.32l-2.7-.9-7,9.33-.29,1.09.91,7.28L70.8,73l2.94-20.35-2.74-1L58,71.37V73L75,99.44,70.12,109.8,53.58,85.34v16.2l7.07,12.76H53.58L37.16,104.22l7.91,15,12.19,6.16,66.68-6.16v29.2l12.14-6.79V115.87h15.08l11.67-14.32Zm2.39,5.72H133.09v27l-6.14,3.43V115.89l-69.1,6.38-10.57-5.34-2.33-4.41,7.79,4.78h13l-9.16-16.53V95.13L70.5,115.71l61.44-15.2V94.13l3.59,2.78v6.29L147,110.47l6.68-2.42Z"/></svg>