<svg id="Layer_1" data-name="Layer 1" xmlns="http://www.w3.org/2000/svg" viewBox="0 0 200 200"><title>iconArtboard 28</title><polygon points="138.24 78.49 77.96 76.43 84.04 92.17 138.3 92.17 138.24 78.49"/><polygon points="75.17 77.53 38.55 114 43.61 120.3 81.33 93.47 75.17 77.53"/><path d="M166.91,73.71c-7-4.21-20,1-25.67,3.61l.07,15.8c5.59,2,18.35,5.8,25.42,1.14,3.25-2.13,4.89-5.68,4.89-10.55S170,75.58,166.91,73.71Z"/><path d="M35.57,115.07c-2.37.34-5.56,1.21-6.73,3.51-.88,1.74-.48,3.79,1.2,6.1,1.55,2.13,3.25,3.2,5.06,3.2a4.86,4.86,0,0,0,.58,0c2.82-.35,4.85-3.28,5.92-5.25Z"/></svg>