<svg id="Layer_1" data-name="Layer 1" xmlns="http://www.w3.org/2000/svg" viewBox="0 0 200 200"><title>iconArtboard 15</title><path d="M153.84,98.22,111,56.74,11.24,89.57l.51,2.93,38-1L19.18,111l1.17,2.72,40.36-10L41,125.56l1.71,2.38,37.06-16.23,31.56,31.55h42.89l34.57-30.31V76.86Zm-131.94-9,57-18.75v.14l21.69,1.56L55.38,88.33Zm85.19,45.57L102.26,130H144l2.68,4H107.08ZM99.26,127l-4-4h44.1l2.68,4ZM93,120v.74L88.26,116h46.42l2.68,4Zm-7.06-7v.68L82.26,110l.69-1h47l2.68,4ZM85,106l4-5.77V101h35.65l3.34,5Zm5.5-8L95,91.46V92h23.62l4,6Zm6.19-9,3.44-5h13.13l3.35,5Zm5.5-8,4.59-6.68L111.27,81ZM28.49,108.62l26.72-17L97.8,76.35,64.91,99.62Zm37.23-5.94,0,0,34.83-24.64-20.9,30.4L47.88,122.38ZM109.27,137h39.46l2.19,3.28H112.55Zm76.49-25.39L154,139.45,107.31,69.67,86,68.13l24.23-8L153.42,102l32.35-19.78Z"/></svg>