<svg id="Layer_1" data-name="Layer 1" xmlns="http://www.w3.org/2000/svg" viewBox="0 0 200 200"><title>iconArtboard 26</title><path d="M141.93,83.09C137,78.33,131,78,126.06,82.08,108.34,63.67,85.58,42.7,75.67,44.28a5.77,5.77,0,0,0-4.42,3.43c-3.57,7.66-2.92,30.62,1.91,68.27a12,12,0,0,0-9.73.13c-7,3.3-7,13.07-6.47,14.91s2.64,1.66,4.47,1.38a23.91,23.91,0,0,1,6.57-.3,8.52,8.52,0,0,1,5.25,2.26,12.64,12.64,0,0,0-6.33,6.06,7.41,7.41,0,0,0-.46,6.25c1,2.21,3.48,1.21,4.93.6,2.19-.91,3.29-1.17,4.14-.36,1.64,3.25,3.26,6.88,3.27,6.88l.9,2,58-59.17.74-.77-.47-.95c-.1-.21-2.44-5.19,3.8-9.52l1.5-1Zm-7.08,12.15-9.17,9.36c-6.21-6.81-33.47-36-37.53-27.25s2.51,50.86,4.2,61.26l-11.72,12c-.66-1.42-1.59-3.39-2.51-5.22l-.23-.33a4.59,4.59,0,0,0-3.55-1.59,11,11,0,0,0-4.09,1.07c-.36.15-.85.35-1.2.47a5.3,5.3,0,0,1,.59-3.25A9.78,9.78,0,0,1,76,136.59l1.71-.42L77,134.55c-.08-.19-2.06-4.72-8.71-5.43a26.84,26.84,0,0,0-7.34.31c-.4.06-.87.13-1.22.17-.17-2.2.38-8.62,5-10.78,3.5-1.66,6.5-.41,8.29.32,1,.43,1.94.8,2.78.15l.74-.76-.11-.86C71.55,80.44,70.68,56,74,49a2.78,2.78,0,0,1,2.19-1.73c6.79-1.15,24.56,12.72,48.74,38l1.06,1.1L127,85.24c2.17-2.15,6.41-5,11.47-1.12C134,88,134,92.58,134.84,95.24Z"/></svg>