<svg id="Layer_1" data-name="Layer 1" xmlns="http://www.w3.org/2000/svg" viewBox="0 0 200 200"><title>iconArtboard 29</title><path d="M133.57,28.59C126.88,25,118.06,26.3,108,32.3,84.3,46.54,55.63,87.44,55.63,116.88c0,24.12,20.92,42.37,38.84,50.68,8.34,3.86,16.38,5.83,23,5.83,5.26,0,9.63-1.23,12.58-3.73,9.4-8,8.1-12.09,5.5-20.32-2-6.26-5-15.71-5-32.46,0-14.69,4.23-29.06,8-41.75C144.55,54.79,149.73,37.22,133.57,28.59Zm-6,88.29c0,17.21,3.07,26.93,5.11,33.36,2.54,8,3.3,10.45-4.58,17.12-5.7,4.83-18.72,3.81-32.4-2.53-17.12-7.93-37.1-25.25-37.1-48,0-28.5,27.88-68.17,51-82,4.43-2.65,10.2-5.27,15.73-5.27a14.32,14.32,0,0,1,6.84,1.63c14,7.48,9.38,23.18,3.53,43.05C131.89,87.16,127.6,101.76,127.6,116.88Z"/><path d="M123.36,61c-11.63-8.38-35.81,30.88-35.81,55.43s26.72,41.25,34,32.91,0-8.36,0-32.91S135,69.38,123.36,61ZM97.65,126.86a35.74,35.74,0,0,0,5.11-18.95c0-11.73-2.58-19.24-2.6-19.32l2.83-1c.11.32,2.77,8,2.77,20.31,0,12.49-5.43,20.35-5.66,20.67Zm8.45,11.79-2.45-1.73c.08-.12,8.11-11.79,8.11-30,0-18.42-4.06-30.23-4.1-30.35l2.83-1c.17.5,4.27,12.37,4.27,31.34C114.77,126.14,106.46,138.15,106.11,138.66Z"/></svg>