<?xml version="1.0" encoding="utf-8"?>
<!-- Generator: Adobe Illustrator 20.1.0, SVG Export Plug-In . SVG Version: 6.00 Build 0)  -->
<svg version="1.1" id="Layer_1" xmlns="http://www.w3.org/2000/svg" xmlns:xlink="http://www.w3.org/1999/xlink" x="0px" y="0px"
	 viewBox="0 0 115.8 144" style="enable-background:new 0 0 115.8 144;" xml:space="preserve">
<style type="text/css">
	.st0{fill-rule:evenodd;clip-rule:evenodd;fill:#D82790;}
</style>
<path class="st0" d="M86.5,12.2c-5.8-4.6-11.9-7.4-17.3-8.9c-1.4-0.4-9.5-1.9-10.8-1.9c-3.7-0.3-6.3,0-6.8,0
	c-1.2,0.1-6.5,0.8-13.2,3.7c-1,0.4-7.1,3.8-8.1,4.4c-2.1,1.4-4.3,3.1-6.5,5.1l8.5,3l8.4,28.7L69.7,67l5.2,20.7L60.2,67L27.6,49.4
	l-2.4-23.9H14.8C-0.5,49.4-6,91.8,10,117.8c15.9,25.8,43.7,26.1,47.7,26c3.2,0,33.8-0.8,49-28.9C123.8,83.2,109.9,30.9,86.5,12.2z"
	/>
</svg>
